<?xml version="1.0" encoding="UTF-8"?>
<svg xmlns="http://www.w3.org/2000/svg" version="1.1" viewBox="0 0 399.3 359.9">
  <defs>
    <style>
      .cls-1 {
        stroke: #000;
        stroke-miterlimit: 10;
        stroke-width: 8.1px;
      }

      .cls-1, .cls-2 {
        fill: #fefefe;
      }

      .cls-3 {
        fill: #ffca01;
        fill-rule: evenodd;
      }
    </style>
  </defs>
  <!-- Generator: Adobe Illustrator 28.7.1, SVG Export Plug-In . SVG Version: 1.2.0 Build 142)  -->
  <g>
    <g id="Layer_1">
      <g>
        <rect width="399.3" height="359.9"/>
        <g>
          <path class="cls-3" d="M258,288.6h-117.6c-2.8,0-5.1-2.3-5.1-5.2v-13.8c0-2.8,2.3-5.1,5.1-5.1h117.6c2.8,0,5.1,2.3,5.1,5.1v13.8c0,2.8-2.3,5.2-5.1,5.2h0Z"/>
          <path class="cls-3" d="M258,288.6h-117.6c-2.8,0-5.1-2.3-5.1-5.2v-13.8c0-2.8,2.3-5.1,5.1-5.1h117.6c2.8,0,5.1,2.3,5.1,5.1v13.8c0,2.8-2.3,5.2-5.1,5.2h0Z"/>
          <path d="M147.8,282.8c-.8-.4-1.4-.9-1.8-1.5-.4-.7-.6-1.4-.6-2.3v-.7h1.7v.6c0,.9.3,1.6.9,2.1.6.6,1.4.8,2.4.8s1.8-.2,2.4-.7c.6-.4.9-1,.9-1.7s-.3-1.2-.8-1.6c-.5-.4-1.2-.6-2-.6h-1.1v-1.6h1.6c1.4,0,2.2-.4,2.2-1.3s-.2-.8-.5-1c-.3-.2-.8-.4-1.4-.7-.8-.3-1.5-.6-1.9-1-.5-.4-.7-1-.7-1.8h1.7c0,.3.2.5.3.7.2.2.4.4.7.5.3.1.6.3,1.1.4.7.3,1.3.6,1.7,1,.4.4.6,1,.6,1.7s-.2,1-.6,1.4c-.4.4-.9.6-1.6.8.8.2,1.3.5,1.7,1,.4.5.6,1.2.6,2s-.2,1.4-.6,2c-.4.6-1,1.1-1.8,1.4-.8.4-1.6.5-2.6.5s-1.9-.2-2.6-.6h0Z"/>
          <path d="M147.8,282.8c-.8-.4-1.4-.9-1.8-1.5-.4-.7-.6-1.4-.6-2.3v-.7h1.7v.6c0,.9.3,1.6.9,2.1.6.6,1.4.8,2.4.8s1.8-.2,2.4-.7c.6-.4.9-1,.9-1.7s-.3-1.2-.8-1.6c-.5-.4-1.2-.6-2-.6h-1.1v-1.6h1.6c1.4,0,2.2-.4,2.2-1.3s-.2-.8-.5-1c-.3-.2-.8-.4-1.4-.7-.8-.3-1.5-.6-1.9-1-.5-.4-.7-1-.7-1.8h1.7c0,.3.2.5.3.7.2.2.4.4.7.5.3.1.6.3,1.1.4.7.3,1.3.6,1.7,1,.4.4.6,1,.6,1.7s-.2,1-.6,1.4c-.4.4-.9.6-1.6.8.8.2,1.3.5,1.7,1,.4.5.6,1.2.6,2s-.2,1.4-.6,2c-.4.6-1,1.1-1.8,1.4-.8.4-1.6.5-2.6.5s-1.9-.2-2.6-.6h0Z"/>
          <path d="M170.9,270.3c.6.4,1,.9,1.4,1.6.3.7.5,1.4.5,2.3v9.1h-1.7v-8.8c0-1-.2-1.7-.6-2.2-.4-.5-1-.8-1.8-.8s-1.4.3-1.8.8c-.4.5-.6,1.2-.6,2.2v5.4h-1.7v-5.4c0-.9-.2-1.7-.6-2.2-.4-.5-1-.8-1.7-.8s-1.4.3-1.8.8c-.4.5-.6,1.3-.6,2.2v8.8h-1.7v-9.1c0-.8.2-1.6.5-2.3.3-.7.8-1.2,1.4-1.6.6-.4,1.3-.6,2.1-.6s1.5.2,2.1.6c.6.4,1.1.9,1.3,1.7.3-.8.7-1.3,1.3-1.7.6-.4,1.3-.6,2.1-.6s1.5.2,2.1.6h0Z"/>
          <path d="M170.9,270.3c.6.4,1,.9,1.4,1.6.3.7.5,1.4.5,2.3v9.1h-1.7v-8.8c0-1-.2-1.7-.6-2.2-.4-.5-1-.8-1.8-.8s-1.4.3-1.8.8c-.4.5-.6,1.2-.6,2.2v5.4h-1.7v-5.4c0-.9-.2-1.7-.6-2.2-.4-.5-1-.8-1.7-.8s-1.4.3-1.8.8c-.4.5-.6,1.3-.6,2.2v8.8h-1.7v-9.1c0-.8.2-1.6.5-2.3.3-.7.8-1.2,1.4-1.6.6-.4,1.3-.6,2.1-.6s1.5.2,2.1.6c.6.4,1.1.9,1.3,1.7.3-.8.7-1.3,1.3-1.7.6-.4,1.3-.6,2.1-.6s1.5.2,2.1.6h0Z"/>
          <path d="M188,276.6c.5-.6.7-1.3.7-2.3s-.3-1.7-.8-2.3c-.5-.6-1.1-.8-2-.8s-1.5.3-2,.8c-.5.6-.7,1.3-.7,2.3s.3,1.7.7,2.2c.5.6,1.1.8,2,.8s1.6-.3,2.1-.8h0ZM179.2,282.4c-1.2-.5-2.1-1.3-2.8-2.3-.7-1-1-2.3-1-3.8v-2.3c0-.9.2-1.7.5-2.3s.8-1.2,1.4-1.5c.6-.4,1.2-.6,2-.6s1.4.2,1.9.6c.6.4,1,1,1.3,1.7.3-.8.8-1.3,1.4-1.7.6-.4,1.4-.6,2.3-.6s1.6.2,2.2.6c.7.4,1.2.9,1.5,1.7.3.7.5,1.5.5,2.4s-.2,1.8-.5,2.4c-.4.7-.9,1.2-1.6,1.6-.7.4-1.5.6-2.3.6s-1.7-.2-2.3-.6c-.6-.4-1.2-.9-1.5-1.6-.4-.7-.5-1.5-.5-2.4v-.4c0-.9-.2-1.5-.6-2-.4-.5-.9-.7-1.6-.7s-1.3.3-1.7.8c-.4.5-.6,1.3-.6,2.2v1.8c0,1.8.5,3.1,1.6,4.1,1.1.9,2.5,1.4,4.4,1.4h4.5v1.6h-4.7c-1.4,0-2.6-.3-3.8-.8h0Z"/>
          <path d="M188,276.6c.5-.6.7-1.3.7-2.3s-.3-1.7-.8-2.3c-.5-.6-1.1-.8-2-.8s-1.5.3-2,.8c-.5.6-.7,1.3-.7,2.3s.3,1.7.7,2.2c.5.6,1.1.8,2,.8s1.6-.3,2.1-.8h0ZM179.2,282.4c-1.2-.5-2.1-1.3-2.8-2.3-.7-1-1-2.3-1-3.8v-2.3c0-.9.2-1.7.5-2.3s.8-1.2,1.4-1.5c.6-.4,1.2-.6,2-.6s1.4.2,1.9.6c.6.4,1,1,1.3,1.7.3-.8.8-1.3,1.4-1.7.6-.4,1.4-.6,2.3-.6s1.6.2,2.2.6c.7.4,1.2.9,1.5,1.7.3.7.5,1.5.5,2.4s-.2,1.8-.5,2.4c-.4.7-.9,1.2-1.6,1.6-.7.4-1.5.6-2.3.6s-1.7-.2-2.3-.6c-.6-.4-1.2-.9-1.5-1.6-.4-.7-.5-1.5-.5-2.4v-.4c0-.9-.2-1.5-.6-2-.4-.5-.9-.7-1.6-.7s-1.3.3-1.7.8c-.4.5-.6,1.3-.6,2.2v1.8c0,1.8.5,3.1,1.6,4.1,1.1.9,2.5,1.4,4.4,1.4h4.5v1.6h-4.7c-1.4,0-2.6-.3-3.8-.8h0Z"/>
          <path d="M193.9,282.8c-.8-.4-1.4-.9-1.8-1.6-.4-.7-.6-1.5-.6-2.4v-.6h1.7v.5c0,.9.3,1.7.9,2.2.6.6,1.4.8,2.4.8s1.9-.2,2.4-.7c.6-.5.9-1.2.9-2.1s-.3-1.5-.8-2c-.5-.4-1.3-.7-2.2-.7h-1.1v-1.6h1.3c.8,0,1.5-.2,1.9-.6.4-.4.6-1,.6-1.8v-2.4h1.7v2.5c0,1.6-.8,2.7-2.3,3.1.8.2,1.5.6,1.9,1.2.5.6.7,1.4.7,2.4s-.2,1.6-.6,2.3-1,1.2-1.8,1.5c-.8.3-1.6.5-2.7.5s-1.9-.2-2.7-.6h0Z"/>
          <path d="M193.9,282.8c-.8-.4-1.4-.9-1.8-1.6-.4-.7-.6-1.5-.6-2.4v-.6h1.7v.5c0,.9.3,1.7.9,2.2.6.6,1.4.8,2.4.8s1.9-.2,2.4-.7c.6-.5.9-1.2.9-2.1s-.3-1.5-.8-2c-.5-.4-1.3-.7-2.2-.7h-1.1v-1.6h1.3c.8,0,1.5-.2,1.9-.6.4-.4.6-1,.6-1.8v-2.4h1.7v2.5c0,1.6-.8,2.7-2.3,3.1.8.2,1.5.6,1.9,1.2.5.6.7,1.4.7,2.4s-.2,1.6-.6,2.3-1,1.2-1.8,1.5c-.8.3-1.6.5-2.7.5s-1.9-.2-2.7-.6h0Z"/>
          <path d="M206,282.8c-.7-.4-1.3-1-1.7-1.8-.4-.8-.6-1.7-.6-2.8v-.9h1.7v.8c0,1.2.3,2.1.9,2.7.6.6,1.4.9,2.3.9s1.8-.3,2.4-.9c.6-.6.9-1.4.9-2.4s-.1-1.1-.3-1.6c-.2-.5-.4-.9-.7-1.2-.3-.4-.6-.8-1.1-1.2-.4-.5-.8-.9-1.1-1.2s-.5-.7-.7-1.2c-.2-.4-.3-1-.3-1.5v-.7h1.7v.5c0,.4,0,.8.2,1.2.2.3.4.7.6.9.2.3.5.6.9,1,.5.5.9,1,1.2,1.4.3.4.6.9.8,1.5.2.6.3,1.3.3,2.1s-.2,1.8-.6,2.5c-.4.7-1,1.3-1.8,1.7-.8.4-1.6.6-2.6.6s-1.8-.2-2.5-.6h0Z"/>
          <path d="M206,282.8c-.7-.4-1.3-1-1.7-1.8-.4-.8-.6-1.7-.6-2.8v-.9h1.7v.8c0,1.2.3,2.1.9,2.7.6.6,1.4.9,2.3.9s1.8-.3,2.4-.9c.6-.6.9-1.4.9-2.4s-.1-1.1-.3-1.6c-.2-.5-.4-.9-.7-1.2-.3-.4-.6-.8-1.1-1.2-.4-.5-.8-.9-1.1-1.2s-.5-.7-.7-1.2c-.2-.4-.3-1-.3-1.5v-.7h1.7v.5c0,.4,0,.8.2,1.2.2.3.4.7.6.9.2.3.5.6.9,1,.5.5.9,1,1.2,1.4.3.4.6.9.8,1.5.2.6.3,1.3.3,2.1s-.2,1.8-.6,2.5c-.4.7-1,1.3-1.8,1.7-.8.4-1.6.6-2.6.6s-1.8-.2-2.5-.6h0Z"/>
          <path d="M218.5,282.8c-.7-.4-1.3-1-1.7-1.7-.4-.8-.6-1.7-.6-2.7v-8.5h1.7v8.3c0,1.2.3,2.1.8,2.7.6.6,1.4.9,2.3.9s1.8-.3,2.4-.8c.6-.5.9-1.2.9-2s0-.8-.3-1.1c-.2-.3-.4-.7-.7-1.1-.3-.4-.6-.8-.7-1.1-.2-.3-.3-.7-.3-1.2h1.7c0,.3,0,.5.2.7.1.2.3.5.6.8.4.5.7.9.9,1.4.2.4.3,1,.3,1.7s-.2,1.6-.6,2.2c-.4.7-1,1.2-1.8,1.5-.8.4-1.6.6-2.6.6s-1.8-.2-2.6-.6h0Z"/>
          <path d="M218.5,282.8c-.7-.4-1.3-1-1.7-1.7-.4-.8-.6-1.7-.6-2.7v-8.5h1.7v8.3c0,1.2.3,2.1.8,2.7.6.6,1.4.9,2.3.9s1.8-.3,2.4-.8c.6-.5.9-1.2.9-2s0-.8-.3-1.1c-.2-.3-.4-.7-.7-1.1-.3-.4-.6-.8-.7-1.1-.2-.3-.3-.7-.3-1.2h1.7c0,.3,0,.5.2.7.1.2.3.5.6.8.4.5.7.9.9,1.4.2.4.3,1,.3,1.7s-.2,1.6-.6,2.2c-.4.7-1,1.2-1.8,1.5-.8.4-1.6.6-2.6.6s-1.8-.2-2.6-.6h0Z"/>
          <path d="M237,281.2c.7-.4,1.2-1,1.7-1.7.4-.8.6-1.6.6-2.6,0-1.4-.4-2.5-1.1-3.4-.7-.9-1.6-1.4-2.8-1.5,0,.7.1,1.5.1,2.3v3.5h-1.7v-3.4c0-.8,0-1.6.1-2.4-1.2.2-2.1.7-2.8,1.5-.7.9-1.1,2-1.1,3.4s.2,1.8.6,2.6c.4.7,1,1.3,1.7,1.7.7.4,1.5.6,2.4.6s1.6-.2,2.3-.6h0ZM231.3,282.6c-1-.6-1.7-1.3-2.3-2.3-.5-1-.8-2.1-.8-3.4s.2-2.3.7-3.2c.5-.9,1.1-1.7,2-2.2.8-.6,1.8-.9,2.9-1v-.7s1.6,0,1.6,0v.7c1,.1,2,.4,2.9,1,.8.6,1.5,1.3,2,2.2.5.9.7,2,.7,3.2s-.3,2.4-.8,3.4c-.6,1-1.3,1.8-2.3,2.3-1,.6-2.1.8-3.2.8s-2.3-.3-3.3-.8h0Z"/>
          <path d="M237,281.2c.7-.4,1.2-1,1.7-1.7.4-.8.6-1.6.6-2.6,0-1.4-.4-2.5-1.1-3.4-.7-.9-1.6-1.4-2.8-1.5,0,.7.1,1.5.1,2.3v3.5h-1.7v-3.4c0-.8,0-1.6.1-2.4-1.2.2-2.1.7-2.8,1.5-.7.9-1.1,2-1.1,3.4s.2,1.8.6,2.6c.4.7,1,1.3,1.7,1.7.7.4,1.5.6,2.4.6s1.6-.2,2.3-.6h0ZM231.3,282.6c-1-.6-1.7-1.3-2.3-2.3-.5-1-.8-2.1-.8-3.4s.2-2.3.7-3.2c.5-.9,1.1-1.7,2-2.2.8-.6,1.8-.9,2.9-1v-.7s1.6,0,1.6,0v.7c1,.1,2,.4,2.9,1,.8.6,1.5,1.3,2,2.2.5.9.7,2,.7,3.2s-.3,2.4-.8,3.4c-.6,1-1.3,1.8-2.3,2.3-1,.6-2.1.8-3.2.8s-2.3-.3-3.3-.8h0Z"/>
          <path d="M243.7,274.7c0-1,.2-1.9.6-2.7.4-.7,1-1.3,1.7-1.7.7-.4,1.5-.6,2.4-.6s1.7.2,2.4.6c.7.4,1.3,1,1.7,1.7.4.8.6,1.7.6,2.7v8.5h-1.7v-8.3c0-1.2-.3-2-.8-2.6-.5-.6-1.3-.9-2.2-.9s-1.6.3-2.2.9c-.6.6-.8,1.5-.8,2.6v8.3h-1.7v-8.5Z"/>
          <path d="M243.7,274.7c0-1,.2-1.9.6-2.7.4-.7,1-1.3,1.7-1.7.7-.4,1.5-.6,2.4-.6s1.7.2,2.4.6c.7.4,1.3,1,1.7,1.7.4.8.6,1.7.6,2.7v8.5h-1.7v-8.3c0-1.2-.3-2-.8-2.6-.5-.6-1.3-.9-2.2-.9s-1.6.3-2.2.9c-.6.6-.8,1.5-.8,2.6v8.3h-1.7v-8.5Z"/>
          <path class="cls-2" d="M164.7,114.8v30.9c0,.6,0,1.1.1,1.7l1.1,4.9c3.8,11.1,17.2,22.3,33.3,22.8,16.1-.5,29.5-11.6,33.3-22.8l1.1-4.9c0-.6.1-1.1.1-1.7v-30.9c2.3-3.4,3.5-7.5,3.5-11.6s-2.2-10.9-6-14.8c7.9-6.3,10.5-10.9,7.6-10.9-4.4,0-13.5-.3-21.5-.5-5.3-3.4-11.4-5.5-18.1-5.8-6.7.3-12.8,2.3-18.1,5.8-8,.2-17,.4-21.5.5-2.9,0-.3,4.6,7.6,10.9-3.8,3.9-6,9.3-6,14.8s1.2,8.2,3.5,11.6h0Z"/>
          <path d="M199.2,109.5l-.3.2c-1,3.9-3.1,7.4-6.1,9.9l6.3,7h0c0,.1,0,0,0,0h0c0,0,0,0,0,0l6.3-7c-3.1-2.6-5.2-6.1-6.1-9.9l-.3-.2Z"/>
          <path class="cls-1" d="M197.2,103.2c0,4.3-1.7,8.5-4.8,11.6-3.1,3.1-7.2,4.8-11.5,4.8s-8.5-1.7-11.5-4.8c-3-3.1-4.8-7.3-4.8-11.6s1.8-8.6,4.8-11.7c3.1-3,7.2-4.8,11.5-4.8s8.4,1.8,11.5,4.8c3.1,3.1,4.8,7.3,4.8,11.7h0Z"/>
          <path class="cls-1" d="M234,103.2c0,4.4-1.8,8.6-4.8,11.7-3.1,3.1-7.3,4.9-11.7,4.9-9.1,0-16.5-7.5-16.5-16.6s7.4-16.6,16.5-16.6,8.5,1.7,11.7,4.9c3.1,3.1,4.8,7.3,4.8,11.8h0Z"/>
          <path d="M219.4,96.1c-3.8,0-6.9,3.1-6.9,7s3.1,7,6.9,7,3.6-.7,4.9-2.1c1.3-1.3,2-3.1,2-4.9s-.5-3-1.4-4.2c-.6.7-1.5,1.2-2.4,1.2-1.8,0-3.2-1.5-3.2-3.3s0-.5.1-.8h-.1ZM180.9,96.1c-3.8,0-6.9,3.1-6.9,7s.7,3.6,2,4.9c1.3,1.3,3.1,2.1,4.9,2.1s3.6-.7,4.9-2.1c1.3-1.3,2-3.1,2-4.9s-.5-3-1.4-4.2c-.6.7-1.5,1.2-2.4,1.2s-1.6-.3-2.3-1c-.6-.6-.9-1.4-.9-2.3s0-.5,0-.8h0Z"/>
          <rect class="cls-2" x="194.2" y="185.5" width="10.1" height="28.8"/>
          <path class="cls-2" d="M232.2,210.1c0,2.3-1.8,4.2-4.1,4.2h-55.6c-2.3,0-4.1-1.8-4.1-4.2s1.9-4.2,4.1-4.2h55.6c2.3,0,4.1,1.9,4.1,4.2h0ZM149.5,133.2v8.1c0,27.7,22.2,50.2,49.7,50.2s49.7-22.5,49.7-50.2v-8.1h0c0-2.2-1.9-3.3-3.7-3.3s-3.7,1.1-3.7,3.3v.7h0v7.4c0,23.7-18.8,42.7-42.3,42.7s-42.3-19-42.3-42.7v-8.1c0-4.5-7.4-4.4-7.4,0h0Z"/>
          <path class="cls-2" d="M86.7,251.6c-1.1-.6-2-1.5-2.6-2.7-.6-1.2-.9-2.6-.9-4.3v-10.9h2.4v10.8c0,1.9.4,3.4,1.3,4.3.9.9,2.1,1.4,3.8,1.4s2.7-.3,3.5-.9c.9-.6,1.3-1.4,1.3-2.4s-.3-1.8-1.1-2.3c-.7-.5-1.7-.8-2.9-.8h-1.6v-2.2h2.3c1.9,0,2.9-.6,2.9-1.8s-.2-1-.4-1.4c-.3-.3-.8-.7-1.4-1.1-.5-.3-1-.6-1.3-.9-.3-.3-.6-.7-.8-1.1-.2-.5-.4-1-.4-1.8h2.4c0,.5.2.9.5,1.2.3.3.8.7,1.4,1,.6.3,1,.7,1.4.9.3.3.6.7.8,1.1.2.5.4,1,.4,1.7s-.3,1.4-.8,1.9c-.5.5-1.2.9-2.2,1.1,1,.2,1.8.7,2.4,1.4.6.7.9,1.7.9,2.8s-.3,1.9-.9,2.8c-.6.8-1.5,1.5-2.6,2-1.1.5-2.4.7-3.8.7s-2.8-.3-3.9-.9h0Z"/>
          <path class="cls-2" d="M118.3,234.3c.8.5,1.5,1.3,1.9,2.2.4.9.6,2,.6,3.2v12.6h-2.4v-12.3c0-1.3-.3-2.4-.8-3.1-.5-.7-1.4-1.1-2.5-1.1s-1.9.3-2.5,1c-.6.7-.9,1.7-.9,3v7.5h-2.4v-7.5c0-1.3-.3-2.3-.8-3-.5-.7-1.4-1-2.4-1s-1.9.3-2.5,1.1c-.6.7-.9,1.8-.9,3.1v12.3h-2.4v-12.6c0-1.2.2-2.3.7-3.2.4-.9,1.1-1.7,1.9-2.2.9-.5,1.8-.8,3-.8s2.1.3,2.9.8c.9.5,1.5,1.3,1.8,2.4.4-1,1-1.9,1.8-2.4.8-.5,1.8-.8,3-.8s2.1.3,2.9.8h0Z"/>
          <path class="cls-2" d="M140.8,243.1c.7-.8,1-1.8,1-3.1s-.3-2.4-1-3.1c-.7-.8-1.6-1.1-2.8-1.1s-2.1.4-2.8,1.1c-.7.8-1,1.8-1,3.1s.3,2.4,1,3.1c.7.7,1.6,1.1,2.8,1.1s2.2-.4,2.8-1.1h0ZM128.5,251.2c-1.6-.7-2.9-1.8-3.8-3.2-1-1.4-1.4-3.1-1.4-5.2v-3.1c0-1.2.2-2.3.6-3.3.4-.9,1.1-1.6,1.9-2.2.8-.5,1.7-.8,2.8-.8s1.9.3,2.7.8c.9.6,1.5,1.3,1.8,2.4.4-1,1.1-1.8,2-2.4.9-.6,1.9-.8,3.2-.8s2.2.3,3.1.8c.9.6,1.6,1.3,2.1,2.3.5,1,.8,2.1.8,3.4s-.3,2.4-.8,3.4c-.5,1-1.2,1.7-2.2,2.2-.9.5-2,.8-3.2.8s-2.3-.3-3.2-.8c-.9-.5-1.6-1.3-2.2-2.2-.5-.9-.8-2.1-.8-3.3v-.6c0-1.2-.3-2.1-.8-2.8-.5-.7-1.3-1-2.2-1s-1.8.3-2.4,1c-.6.7-.9,1.8-.9,3.1v2.5c0,2.5.8,4.4,2.3,5.7,1.5,1.3,3.6,1.9,6.1,1.9h6.4v2.3h-6.5c-1.9,0-3.7-.4-5.3-1h0Z"/>
          <path class="cls-2" d="M156.4,249.2c.8-.8,1.2-1.8,1.2-3s-.4-2.2-1.2-3c-.8-.8-1.9-1.2-3.2-1.2s-2.4.4-3.2,1.2c-.8.8-1.2,1.8-1.2,3s.4,2.3,1.2,3.1c.8.8,1.9,1.1,3.2,1.1s2.4-.4,3.2-1.2h0ZM149.8,251.7c-1-.6-1.8-1.3-2.4-2.3-.6-1-.9-2-.9-3.3v-7.2c0-1,.2-1.9.8-2.7.5-.8,1.2-1.4,2.1-1.8.9-.4,1.9-.7,3-.7h6.4v2.2h-6.1c-1.2,0-2.1.3-2.8.8-.7.6-1,1.4-1,2.5v2.9c1-1.6,2.6-2.4,4.9-2.4s2.3.3,3.2.8c1,.6,1.8,1.3,2.3,2.3.6,1,.9,2,.9,3.2s-.3,2.3-.9,3.3c-.6,1-1.4,1.7-2.4,2.3-1.1.6-2.2.8-3.6.8s-2.5-.3-3.5-.8h0Z"/>
          <path class="cls-2" d="M162.5,240.5c0-1.4.3-2.7.8-3.7.6-1,1.3-1.8,2.3-2.4,1-.6,2.1-.8,3.4-.8s2.4.3,3.4.8c1,.6,1.8,1.4,2.3,2.4.6,1,.8,2.3.8,3.7v11.8h-2.3v-11.6c0-1.6-.4-2.8-1.1-3.6-.8-.8-1.8-1.2-3.1-1.2s-2.3.4-3,1.3c-.8.8-1.1,2-1.1,3.6v11.6h-2.4v-11.8Z"/>
          <path class="cls-2" d="M181.2,251.7c-1-.6-1.8-1.4-2.4-2.4-.6-1-.9-2.3-.9-3.8v-11.8h2.4v11.6c0,1.7.4,2.9,1.2,3.7.8.8,1.9,1.2,3.2,1.2s2.5-.3,3.3-1c.8-.7,1.2-1.7,1.2-2.9s-.1-1.1-.3-1.6c-.2-.4-.6-.9-1-1.5-.5-.6-.8-1.1-1-1.5-.2-.4-.4-1-.4-1.7h2.4c0,.4.1.7.3,1s.4.7.8,1.1c.6.7,1,1.3,1.3,1.9.3.6.5,1.4.5,2.4s-.3,2.2-.9,3.1c-.6.9-1.4,1.6-2.5,2.1-1,.5-2.2.8-3.6.8s-2.5-.3-3.6-.8h0Z"/>
          <path class="cls-2" d="M203.2,249.2c.8-.8,1.2-1.8,1.2-3.1s-.4-2.3-1.2-3c-.8-.8-1.9-1.2-3.2-1.2s-2.4.4-3.2,1.2c-.8.8-1.2,1.8-1.2,3s.4,2.3,1.2,3c.8.8,1.9,1.2,3.2,1.2s2.4-.4,3.2-1.1h0ZM196.5,251.7c-1-.6-1.8-1.3-2.4-2.3-.6-1-.9-2-.9-3.3s.3-2.3.9-3.2c.6-1,1.4-1.7,2.3-2.3,1-.6,2.1-.8,3.2-.8,2.2,0,3.8.8,4.8,2.4v-2.8c0-1.2-.4-2.1-1.2-2.8-.8-.7-1.9-1-3.1-1s-2.1.3-2.9.8c-.8.6-1.2,1.3-1.2,2.1h-2.4c0-1,.3-1.8.9-2.6.6-.8,1.4-1.4,2.3-1.8,1-.4,2.1-.7,3.2-.7s2.4.2,3.5.7c1,.5,1.8,1.2,2.4,2,.6.9.9,1.8.9,3v7c0,1.2-.3,2.3-.9,3.3-.6,1-1.4,1.7-2.4,2.3-1,.6-2.2.8-3.5.8s-2.5-.3-3.5-.8h0Z"/>
          <path class="cls-2" d="M227.2,234.3c.8.5,1.5,1.3,1.9,2.2.4.9.6,2,.6,3.2v12.6h-2.4v-12.3c0-1.3-.3-2.4-.8-3.1-.5-.7-1.4-1.1-2.5-1.1s-1.9.3-2.5,1c-.6.7-.9,1.7-.9,3v7.5h-2.4v-7.5c0-1.3-.3-2.3-.8-3-.5-.7-1.4-1-2.4-1s-1.9.3-2.5,1.1c-.6.7-.9,1.8-.9,3.1v12.3h-2.4v-12.6c0-1.2.2-2.3.7-3.2.4-.9,1.1-1.7,1.9-2.2.9-.5,1.8-.8,3-.8s2.1.3,2.9.8c.9.5,1.5,1.3,1.8,2.4.4-1,1-1.9,1.8-2.4.8-.5,1.8-.8,3-.8s2.1.3,2.9.8h0Z"/>
          <path class="cls-2" d="M233.8,250.9c-1.2-1.1-1.7-2.6-1.7-4.6h2.3c0,1.3.4,2.3,1.1,2.9.7.7,1.7,1,3,1s2.4-.4,3.1-1.1c.8-.7,1.1-1.8,1.1-3.1v-4.5c-.5.8-1.1,1.4-1.9,1.8-.8.4-1.7.6-2.8.6s-2.2-.3-3.1-.8c-.9-.5-1.7-1.2-2.2-2.2s-.8-2-.8-3.3v-4h2.3v3.7c0,1.3.4,2.4,1.1,3.1.7.8,1.7,1.2,3,1.2s2.3-.4,3.1-1.2c.8-.8,1.2-1.9,1.2-3.4v-3.4h2.3v12.3c0,1.3-.3,2.5-.8,3.4-.6,1-1.4,1.7-2.3,2.2-1,.5-2.2.8-3.5.8-1.9,0-3.5-.6-4.7-1.7h0Z"/>
          <path class="cls-2" d="M250.8,251.7c-1.1-.5-1.9-1.3-2.4-2.2-.6-.9-.9-2-.9-3.3v-.9h2.3v.8c0,1.3.4,2.3,1.2,3,.8.7,1.9,1.1,3.4,1.1s2.5-.3,3.4-.9c.8-.6,1.2-1.4,1.2-2.5s-.3-1.8-1-2.3c-.7-.5-1.6-.8-2.8-.8h-1.7v-2.2h1.8c1.1,0,1.9-.2,2.5-.7.6-.4.9-1.1.9-2.1s-.4-1.7-1.2-2.3c-.8-.6-1.8-.9-3.1-.9s-2.4.3-3.2,1c-.8.7-1.2,1.6-1.2,2.8v.6h-2.4v-.6c0-1.2.3-2.2.9-3.1.6-.9,1.4-1.6,2.4-2.1,1-.5,2.2-.8,3.5-.8s2.4.2,3.5.7c1,.5,1.8,1.1,2.4,2,.6.8.9,1.7.9,2.7s-.3,1.8-.8,2.5c-.5.7-1.2,1.1-2.2,1.4,1,.2,1.8.7,2.4,1.4.6.7.9,1.7.9,2.8s-.3,2-.9,2.9c-.6.8-1.4,1.5-2.5,2-1.1.5-2.3.7-3.7.7s-2.7-.3-3.7-.8h0Z"/>
          <path class="cls-2" d="M267,251.7c-1-.6-1.8-1.4-2.4-2.5-.6-1.1-.9-2.4-.9-3.8v-1.2h2.4v1c0,1.7.4,2.9,1.2,3.8.8.9,1.9,1.3,3.2,1.3s2.5-.4,3.3-1.2c.8-.8,1.2-1.9,1.2-3.3s-.1-1.6-.4-2.2c-.3-.7-.6-1.2-1-1.7-.4-.5-.9-1-1.5-1.7-.6-.7-1.1-1.2-1.5-1.7-.4-.5-.7-1-.9-1.7s-.4-1.4-.4-2.2v-.9h2.4v.7c0,.6.1,1.2.3,1.7.2.5.5.9.8,1.3.3.4.8.8,1.3,1.4.7.7,1.3,1.3,1.7,1.9.4.6.8,1.3,1.1,2.1.3.8.5,1.8.5,2.9s-.3,2.5-.9,3.5c-.6,1-1.4,1.8-2.4,2.4-1,.6-2.2.8-3.6.8s-2.5-.3-3.6-.9h0Z"/>
          <path class="cls-2" d="M297.9,240.7c.8.5,1.5,1.3,1.9,2.2.4.9.6,2,.6,3.2v6.2h-2.4v-6c0-1.3-.3-2.3-.8-3-.6-.7-1.4-1.1-2.5-1.1s-1.9.4-2.5,1.1c-.6.7-.9,1.7-.9,3v3.8h-2.4v-3.8c0-1.3-.3-2.3-.8-3-.6-.7-1.4-1.1-2.4-1.1s-1.9.4-2.5,1.1c-.6.7-.9,1.8-.9,3.1v5.9h-2.4v-9c0-3.2.9-5.6,2.7-7.2,1.8-1.6,4.1-2.4,7-2.4h5.7v2.3h-5.5c-2.3,0-4.1.5-5.4,1.5-1.3,1-2.1,2.5-2.3,4.6.4-.7.9-1.2,1.6-1.5.7-.3,1.4-.5,2.2-.5s1.9.3,2.7.8c.8.6,1.4,1.3,1.7,2.4.4-1.1,1-1.9,1.9-2.4.8-.5,1.8-.8,2.9-.8s2.1.3,3,.8h0Z"/>
          <path class="cls-2" d="M306,251.7c-1-.6-1.8-1.3-2.3-2.3-.6-1-.9-2.1-.9-3.4v-1.3h2.4v1.2c0,1.3.4,2.4,1.2,3.1.8.8,1.8,1.2,3.1,1.2s2.4-.4,3.2-1.2c.8-.8,1.1-2,1.1-3.5v-4.9c0-1.7-.4-2.9-1.2-3.7-.8-.8-1.8-1.2-3.2-1.2s-2.2.3-3,1.1c-.8.7-1.1,1.7-1.1,2.9v.7h-2.3v-.8c0-1.2.3-2.3.8-3.3.5-.9,1.3-1.7,2.3-2.2s2.1-.8,3.3-.8,2.5.3,3.5.8c1,.5,1.8,1.3,2.4,2.4.6,1,.9,2.3.9,3.8v5.1c0,1.4-.3,2.7-.8,3.7-.6,1-1.4,1.9-2.4,2.4-1,.6-2.2.9-3.5.9s-2.5-.3-3.5-.8h0Z"/>
        </g>
      </g>
    </g>
  </g>
</svg>