<?xml version="1.0" encoding="UTF-8"?>
<svg id="Layer_1" xmlns="http://www.w3.org/2000/svg" version="1.1" viewBox="0 0 540.5085631 446.8958217">
  <!-- Generator: Adobe Illustrator 29.8.4, SVG Export Plug-In . SVG Version: 2.1.1 Build 6)  -->
  <path d="M109.2388686,342.1889608c42.5699463,23.9499512,83.4399414,53.4299927,126.1199341,76.8800049,30.5599976,16.7799683,65.2700195,20.9499512,98.9500122,11.2699585,3.4299927-.9899902,14.0499878-5.7399902,16.1799927-5.8299561,3.3900146-.1400146,12.6900024,2.8199463,17.0300293,3.3999634,47.3699951,6.3599854,94.9500122-14.9400024,122.0899658-53.7700195,29.8600464-42.75,50.460022-84.4499512,34.6000366-137.9199829-15.3099976-51.5899658-56.5800171-74.2399902-100-99.5-15.6799927-8.1300049-33.6500244-2.2099609-41.7000122,13.3200073-3.4899902,6.7399902-4.7600098,13.8599854-4.8099976,21.4400024-.3300171.3699951-3.8300171-1.9099731-4.460022-2.289978-26.1999512-15.7000122-52.039978-32.0400391-78.1999512-47.8000488-23.8500366-13.6699829-54.1600342,3.6000366-53.8400269,31.0900269-26.210022-8.2600098-51.2199707,10.9199829-48.4399414,38.6900024.6599121,6.5999756,3.9799194,12.1099854,6.9399414,17.7999878-27.0300293,11.8400269-27.9499512,49.9299927-2.5,64.2600098-23.8000488,14.710022-25.2399902,46.25-1.8599854,62.3599854,38.5700073,25.3599854,81.1699829,46.960022,119.3200073,72.6799927.8899536.6100464,2.0899658,1.1500244,2.539978,2.2000122-20.960022,3.5499878-42.4000244,1.2000122-61.8400269-7.3999634-4.7299805-2.1000366-9.1499634-4.8000488-13.6199951-7.3800049-40.5899658-23.460022-79.6399536-49.75-120.1998901-73.3000488-12.6000977-9.3299561-2.7200928-27.1699829,11.1499023-22.6499634,2.3699951.7799683,4.6899414,2.6900024,7.3800049,3.1199951,13.3499756,2.1099854,22.0699463-13.0800171,13.6300049-23.6300049-1.3699951-1.7000122-3.2800293-2.7600098-5.0400391-3.960022-6.8099365-4.6199951-25.6999512-13.7299805-29.6799316-19.3200073-7.5400391-10.5899658,1.75-25.5099487,14.2399902-19.7399902,2.4299316,1.1199951,5.0600586,3.5400391,7.4799805,4.5200195,11.4899902,4.6799927,23.1099854-5.289978,19.75-17.25-3.8100586-13.5700073-29.3800049-14.4500122-30.2700195-30.2299805-.4499512-7.960022,5.1700439-14.1000366,13.2700195-13.2700195,4.7299805.4799805,9.6899414,5.6699829,14.0700684,7.4299927,15.3798828,6.2200317,26.8299561-12.6099854,13.6899414-23.6900024-28.4100342-23.9099731-70.0800781-.0599976-64.3699951,35.3699951,1.0100098,6.2700195,3.7600098,11,6.8599854,16.3800049-27.1400146,11.5100098-28.0300293,49.6300049-3,64.2700195l-7.75,6.2399902c-16.3599854,17.5700073-13.3900147,42.6500244,6.2900391,56.210022ZM332.8588027,392.0689657l-125.8199463-76.6800537c-11.9900513-9.8999634-.9400024-28.2199707,13.5-21.5l62.6599731,37.8400269c15.8400269,4.4799805,25.9899902-15.0100098,12.960022-25.460022l-89.2300415-54.7699585c-9.7399902-10-2.0700073-27.7300415,12.4299927-21.9299927,33.3700562,20.2999878,66.5,41.0999756,100.2000122,60.7999878,16.0100098,4.789978,26.0100098-14.2700195,13.6099854-25.1099854l-111.9799805-68.5200195c-11.7199707-10.9299927-.3399658-30.4400024,14.3500366-20.8500366l110.8099976,67.6900024c15.9699707,6.6400146,27.8999634-12.75,15.3099976-24.3099976-28.3200073-18.6499634-58.6100464-34.4599609-86.9200439-53.0799561-4.4699707-2.9400024-7.9899902-4.9200439-9.3999634-10.6000366-2.1900024-8.789978,3.9299927-17.6300049,13.4899902-15.9899902,2.3499756.4000244,5.2199707,2.4799805,7.3300171,3.6699829,44.2399902,25.0200195,86.2699585,54.3200073,130.3999634,79.6000366,10.8599854,4.6699829,22.0400391-3.0499878,20.5800171-15.0800171-1.9500122-16.1500244-34.1099854-17.1699829-35.9299927-36.5599976-.6600342-7,3.039978-17.8300171,11.9400024-13.9500122,35.9699707,22.7399902,71.8099976,37.1199951,87.0599976,80.4400024,15.9299927,45.2700195,0,76.2700195-23.6099854,113.4100342-32.6199951,51.3399658-88.1199951,69.8099976-143.7400513,40.9400024Z"/>
  <g>
    <path d="M15.0535196,147.2284137l42.9857429,37.2230278c11.700072,5.6858117,22.3253802-7.474958,14.4398505-17.8486439l-41.7901834-36.1929167c-11.724721-6.5231846-22.9511785,6.0351948-15.63541,16.8185328Z"/>
    <path d="M197.2072055,27.5829278l4.1369805,55.6418044c4.1921097,12.2179331,21.6927921,10.4945369,22.8034186-2.5786315l-3.9146229-55.3607081c-.6189953-2.6838844-2.6730988-5.6538673-5.0553022-7.0548648-7.8619014-4.6246226-17.0603494.3061006-17.970474,9.3524Z"/>
    <path d="M293.4050785,79.8435171c-8.8644634,13.9836896,9.3389742,27.3594658,19.173832,13.9409776,6.5309021-14.5808947,14.4717594-28.7028312,20.8780402-43.3220797.9270501-2.1068049,2.4074221-5.3176631,2.9518336-7.4355282.9816396-3.7728206-1.1275965-9.5483673-4.4525536-11.5574028-5.536055-3.3532944-13.5204143-2.8669547-16.9361398,3.1819236-8.0073896,14.1817231-13.610133,30.8804198-21.6150124,45.1921094Z"/>
    <path d="M134.7274126,104.082184c-8.8530038-14.3557002-17.1368112-29.9919045-26.5191575-43.9865779-1.6278089-2.4149842-3.1667969-5.2464505-5.755738-6.7504407-9.0069801-5.2371485-20.2280908,3.2711815-17.0576615,13.5816515.5570956,1.8318311,1.9866311,3.9322399,2.9388104,5.6618175,8.0198731,14.4787868,18.1319913,28.5031062,26.5891332,42.7995643,8.8253306,9.2714472,23.3503542.8614116,19.8046133-11.3060147Z"/>
  </g>
</svg>