<?xml version="1.0" encoding="UTF-8"?>
<svg id="Layer_1" xmlns="http://www.w3.org/2000/svg" width="191.3103248" height="46.0692142" version="1.1" viewBox="0 0 191.3103248 46.0692142">
  <!-- Generator: Adobe Illustrator 29.2.1, SVG Export Plug-In . SVG Version: 2.1.0 Build 116)  -->
  <defs>
    <style>
      .st0 {
        fill: #ffca01;
        fill-rule: evenodd;
      }

      .st1 {
        fill: #fefefe;
      }
    </style>
  </defs>
  <g>
    <g>
      <path class="st1" d="M8.6917968,8.5877438c1.0674102-.9891304,2.4172965-1.5296916,3.841934-1.5296916,1.4597381,0,2.9041235.6017241,3.9627121,1.6511507.4405834.4449477.7931677.9524512,1.0612506,1.499528.9252436-1.8925058,2.8584989-3.1980985,5.0892114-3.1980985,1.4581904,0,2.8256889.5512709,3.8782727,1.5474585,2.1186012-1.7009694,2.7949526-2.9310989,2.0079136-2.9310989-1.2210604-.0158014-3.7258607-.0790382-5.9332037-.126489-1.4559308-.9486904-3.1623015-1.5179295-5.0096006-1.5969831-1.8472991.0790537-3.5536698.6482927-5.0095697,1.5969831-2.207374.0474508-4.7121434.1106875-5.9332347.126489-.791651,0-.1037541,1.2442441,2.0443142,2.9607518Z"/>
      <path class="st1" d="M26.6638465,16.7522482c-1.0791414,1.089913-2.5056979,1.6901513-4.0169416,1.6901513-1.2450488,0-2.3968676-.4074638-3.3330376-1.0959178l-1.7079183,1.8944249v.0316338l-.0156622-.0158169-.0156312.0158169v-.0316338l-1.7506952-1.9418911c-.9509036.6978637-2.0896602,1.0801164-3.2902298,1.0801164-1.5112437,0-2.9269048-.5889715-3.9857411-1.6587032-.1853459-.1906543-.3510676-.3968469-.5072559-.6094159v8.3635933c0,.1581228.0156622.3162301.0313243.474353l.2974572,1.3598067c1.0645316,3.0832942,4.7591299,6.1665885,9.2207716,6.2930775,4.4616726-.126489,8.1562399-3.2097832,9.2207716-6.2930775l.2974572-1.3598067c.0156622-.1581228.0313243-.3162301.0313243-.474353v-8.2798812c-.1477381.1945544-.3034002.3832277-.4759935.5575234Z"/>
    </g>
    <rect class="st1" x="16.1969976" y="35.5112133" width="2.7865846" height="7.9533108"/>
    <path class="st1" d="M26.7014845,42.3102597c0,.6482899-.5009605,1.1542644-1.1428121,1.1542644h-15.3888408c-.6261985,0-1.1428121-.5059745-1.1428121-1.1542644,0-.6324639.5166136-1.1542475,1.1428121-1.1542475h15.3888408c.6418516,0,1.1428121.5217836,1.1428121,1.1542475h0ZM3.8452258,21.0434531v2.2294666c0,7.6686969,6.152404,13.882715,13.745064,13.882715,7.5926643,0,13.745064-6.2140181,13.745064-13.882715v-2.2294666h0c0-.6166549-.5166178-.9170778-1.0175699-.9170778-.5166178,0-1.0332273.3004229-1.0332273.9170778v.1897426h0v2.039724c0,6.5618766-5.197451,11.8113729-11.6942669,11.8113729-6.4968117,0-11.6942627-5.2494962-11.6942627-11.8113729v-2.2294666c0-1.2333097-2.0508013-1.2175007-2.0508013,0h0Z"/>
    <path class="st1" d="M23.1712819,9.3960414c-1.8771996,0-3.3989982,1.5217831-3.3989982,3.3989982,0,1.8772306,1.5217986,3.3990137,3.3989982,3.3990137s3.3990292-1.5217831,3.3990292-3.3990137c0-1.8772151-1.5218295-3.3989982-3.3990292-3.3989982ZM24.5254397,14.0862856c-.360044.3636654-.8453852.5692236-1.3619888.5692236-1.0488695,0-1.9099168-.8696523-1.9099168-1.9290302,0-1.0751949.8610474-1.9448471,1.9099168-1.9448471h.0313243c-.0313243.0790537-.0313243.1581228-.0313243.2213596,0,.4901544.3913683.8854537.8766786.9012861.2661639,0,.5009724-.1265044.6731633-.3320625.2348395.3320625.3757371.7431633.3757371,1.154264,0,.5059713-.2035462.9961412-.5635901,1.3598067Z"/>
    <path class="st1" d="M12.5259038,9.3960414c-1.8771996,0-3.3989982,1.5217831-3.3989982,3.3989982,0,1.8772306,1.5217986,3.3990137,3.3989982,3.3990137s3.3990292-1.5217831,3.3990292-3.3990137c0-1.8772151-1.5218295-3.3989982-3.3990292-3.3989982ZM13.8800616,14.0862856c-.360044.3636654-.8453852.5692236-1.3619888.5692236-.5009415,0-.9862518-.2055581-1.3463267-.5692236-.360044-.3636654-.5635901-.8538353-.5635901-1.3598067,0-1.0751949.8610474-1.9448471,1.9099168-1.9448471h.0156622c-.0156622.0790537-.0156622.1581228-.0156622.2213596,0,.2371765.093942.474353.2504707.6324758.1722219.1739397.3913683.2688103.6262078.2688103.2661639,0,.5009724-.1265044.6731633-.3320625.2348395.3320625.3757371.7431633.3757371,1.154264,0,.5059713-.2035462.9961412-.5635901,1.3598067Z"/>
  </g>
  <g>
    <path class="st1" d="M43.1968896,17.7115346c-.7174075-.3787614-1.2554632-.9386752-1.6467765-1.6632675-.3913133-.7410575-.5869699-1.630337-.5869699-2.6678211v-6.8671528h1.4837295v6.7848179c0,1.2021625.2771802,2.1079072.8315405,2.7007515.5380558.576379,1.3369871.8728055,2.3804889.8728055.9293691,0,1.6630815-.1811525,2.2174418-.5599138s.815236-.8892708.815236-1.498589c0-.6257835-.2119611-1.1033536-.6684934-1.4327194-.4565323-.3128917-1.0435021-.4775702-1.8098241-.4775702h-.9782831v-1.3833149h1.4674249c1.2228537,0,1.8261286-.3622874,1.8261286-1.1033536,0-.3622961-.0978286-.6422487-.2771802-.8563403-.1956566-.1976089-.4891418-.4281658-.8967595-.6751791-.3423992-.1976177-.6195794-.3787701-.815236-.5599138-.2119617-.1811437-.3750087-.4117006-.5217513-.7081271-.1467421-.2964177-.2282656-.6587227-.2282656-1.1033536h1.4837294c.032609.3293569.1467421.576379.3423987.7739967.1956566.2140829.4891418.4281658.8641506.6587227.3587037.2140829.6358839.4117006.847845.5928442.1956566.1811437.3750087.4117006.5217508.6916531.1467431.2964265.2282661.6587227.2282661,1.0868972,0,.4775614-.1630471.8727968-.4891413,1.2021537-.3260942.3293657-.7826265.5763878-1.3695963.7081271.6195794.1317393,1.1250257.4117006,1.4837294.8728055.3587043.461105.5380553,1.053958.5380553,1.7620763,0,.6257835-.1956561,1.2186277-.5869693,1.7291371-.3913132.5269746-.9293691.9386752-1.630472,1.2351017-.6847984.3128917-1.4837294.461105-2.3641844.461105-.9456736,0-1.7609095-.1976089-2.4620125-.576379h0Z"/>
    <path class="st1" d="M63.0071235,6.8426503c.5217502.3293569.9130646.7904707,1.1902436,1.3833149.2771813.576379.4076172,1.2515669.4076172,1.9926332v7.9046368h-1.5163378v-7.7399671c0-.8398663-.1630482-1.4985802-.5217502-1.94322-.3423992-.461105-.8641517-.6751879-1.5652529-.6751879-.6684934,0-1.1739408.2140829-1.5489501.6587139-.3587021.4611138-.5380553,1.0868972-.5380553,1.9102983v4.7098411h-1.5163378v-4.7098411c0-.8234011-.1793521-1.4491846-.5217513-1.9102983-.3423992-.444631-.8478455-.6587139-1.5326439-.6587139s-1.2228537.2140829-1.581558.6751879c-.3587032.4446398-.5543603,1.1033536-.5543603,1.959694v7.7234931h-1.5000339v-7.9046368c0-.7410663.1304381-1.4162542.4239233-1.9926332.2771802-.5928442.6847973-1.053958,1.2065487-1.3833149.5380553-.3293569,1.1413307-.4940442,1.8587381-.4940442.6847984,0,1.2880728.1646872,1.826128.5105094.5380564.3293657.9130646.8234011,1.1250257,1.4821238.2608762-.6587227.6358833-1.1692321,1.1576358-1.498589.5217502-.3293569,1.1413307-.4940442,1.858737-.4940442.7011035,0,1.3206817.1646872,1.8424342.4940442h0Z"/>
    <path class="st1" d="M77.0943998,12.3759013c.4239222-.4775702.6195783-1.1198189.6195783-1.959694,0-.8398663-.2119589-1.498589-.6358833-1.9761592-.4239222-.4775702-1.0108926-.7081183-1.760909-.7081183-.7337135,0-1.3206817.2305481-1.7446062.7081183-.4239222.4775702-.6195783,1.1362929-.6195783,1.9761592,0,.8234011.1956561,1.4821238.6195783,1.959694.4239244.461105,1.0108926.7081183,1.7446062.7081183.7500164,0,1.3532918-.2305481,1.777214-.7081183h0ZM69.3822683,17.4645213c-1.0108926-.4446485-1.8098241-1.1198276-2.4130995-2.0091072-.6032732-.889262-.8967595-1.9761592-.8967595-3.2771305v-1.9596852c0-.7740055.1304381-1.4491846.4076194-2.0420376.2771791-.576379.6684934-1.0210188,1.1739386-1.3503757.5054474-.3128917,1.0924178-.477579,1.7609112-.477579.6195783,0,1.1902436.1811525,1.7119939.5105094.5380553.3458309.9130646.8398663,1.1250257,1.4821238.2608762-.6587227.6847984-1.1527581,1.2391587-1.4821238.5543603-.3458222,1.2228537-.5105094,1.9891751-.5105094.7337135,0,1.3695969.1811525,1.9402644.5105094.5706654.3458309,1.0108904.8234011,1.3206796,1.4327194.3260964.6257835.4728395,1.3174453.4728395,2.1243724,0,.8069359-.1630504,1.5315282-.4891424,2.1408377-.3097891.6093182-.7663214,1.0704232-1.353294,1.3997889-.5869682.3293569-1.2717666.4940354-2.0380881.4940354-.7826265,0-1.4674249-.1646785-2.0380903-.4775702-.5869704-.3293569-1.0271976-.7904707-1.3532918-1.3997802-.3097891-.5928442-.4728373-1.3009713-.4728373-2.074968v-.3622961c0-.7575315-.179351-1.3339105-.5217502-1.7620763-.3423992-.4117006-.7989315-.6093182-1.3859019-.6093182-.6358833,0-1.1413307.2140829-1.4837299.6587139-.3587021.4611138-.5380553,1.1033624-.5380553,1.959694v1.5479934c0,1.5479934.4728373,2.7336995,1.418512,3.5570918.9456725.8069271,2.2337463,1.2186277,3.8479122,1.2186277h3.9946575v1.4162542h-4.1087906c-1.1902436,0-2.2989643-.2305481-3.3098569-.6587139h0Z"/>
    <path class="st1" d="M86.9261468,16.1964804c.5217481-.4775702.7826243-1.1198276.7826243-1.9102896,0-.7739967-.2608762-1.3997802-.7826243-1.8938156-.5054496-.4940442-1.1739408-.7410663-1.9891751-.7410663-.8315416,0-1.5000372.2470221-2.0217852.7410663-.5054496.4775614-.7663258,1.1198189-.7663258,1.8938156,0,.8069359.2608762,1.4327194.7663258,1.9267548.5054452.4775702,1.1739364.7081271,2.0217852.7081271.8152343,0,1.4837255-.2305569,1.9891751-.7245923h0ZM82.7358333,17.777413c-.6521884-.3458397-1.1576336-.8234011-1.51634-1.4327194-.3587021-.6093182-.5380553-1.2845061-.5380553-2.0420376v-4.5122322c0-.6422574.1467431-1.2186277.4728351-1.7126719.3097935-.4940442.7500186-.8892708,1.3043811-1.1527581.5706654-.2799613,1.2065465-.4117006,1.9076521-.4117006h4.0435704v1.3503757h-3.8479144c-.7500186,0-1.3369868.1811525-1.760909.5269746-.4239266.3622961-.6521927.8892795-.6521927,1.5973978v1.8444112c.6358855-.9880708,1.6467803-1.482115,3.0489829-1.482115.7337157,0,1.4185142.1646785,2.0380924.5105094.6195783.3458222,1.1087206.8069359,1.4674227,1.4162454.3587064.6093182.5380553,1.2845061.5380553,2.0255636,0,.7575315-.1793488,1.4327194-.5380553,2.0420376-.3750093.6093182-.8804545,1.0868797-1.5326429,1.4327194-.6684912.3458222-1.4022069.5105006-2.2337441.5105006-.8315416,0-1.5652529-.1646785-2.2011384-.5105006h0Z"/>
    <path class="st1" d="M90.7088411,10.7291078c0-.9057447.1793488-1.6797415.5217481-2.3384641.3587064-.6587139.8315416-1.1527581,1.4511199-1.5150542.6195827-.3458309,1.3369868-.5269834,2.1359183-.5269834.7826287,0,1.4837299.1811525,2.1196154.5269834.6195783.3622961,1.1087206.8563403,1.4674227,1.5150542.3587064.6587227.5217524,1.4327194.5217524,2.3384641v7.3941274h-1.4674227v-7.2953273c0-1.0045448-.2445734-1.7620763-.7174085-2.2890509-.4891424-.5269746-1.1250279-.7739967-1.9239594-.7739967s-1.4185098.2634873-1.9076521.7904707c-.489138.5269746-.7174041,1.2844973-.7174041,2.2725769v7.2953273h-1.4837299v-7.3941274Z"/>
    <path class="st1" d="M102.4482358,17.777413c-.6521884-.3458397-1.1413307-.8563403-1.5163356-1.515063-.3587064-.6587139-.5380553-1.4491846-.5380553-2.3713945v-7.3776622h1.5163356v7.2623881c0,1.037484.2445734,1.8114807.7500186,2.3384553.4891424.5105094,1.1739408.7575315,2.0380881.7575315.8641517,0,1.5489501-.2140829,2.0543953-.6422487.5054452-.4446398.7500186-1.037484.7500186-1.8114895,0-.3787614-.0652202-.7081183-.2119633-.9880708-.1467431-.2799613-.3587021-.592853-.6358811-.92221-.2934863-.3623049-.5054496-.6751966-.6521884-.9716144-.1467431-.2799525-.2282661-.6422574-.2282661-1.053958h1.4837255c.0163072.2470309.0652202.4611138.1793532.6422574s.2771791.4281658.5054452.6916531c.3587064.4117006.6195827.8234011.8152387,1.2021713.1956561.3952266.2934819.905736.2934819,1.4985802,0,.7245923-.1956561,1.3668497-.5543581,1.9432288-.3750093.559905-.8967617,1.0045536-1.5652529,1.3339105-.6521884.3293569-1.4022069.4940354-2.2337485.4940354-.8478444,0-1.597863-.1646785-2.2500514-.5105006h0Z"/>
    <path class="st1" d="M116.2746359,16.2129456c.5054452-.4940354.7500186-1.1198189.7500186-1.9267548,0-.7739967-.2445734-1.4162542-.7500186-1.8938156-.5217437-.4940442-1.1902436-.7410663-2.0217808-.7410663-.8152387,0-1.4837299.2470221-1.9891751.7410663-.5054496.4940354-.7663214,1.1198189-.7663214,1.8938156,0,.7904619.2608718,1.4327194.7663214,1.9102896.5054452.4940354,1.1739364.7245923,1.9891751.7245923.8478444,0,1.5163356-.2305569,2.0217808-.7081271h0ZM112.0354138,17.777413c-.6521884-.3458397-1.1576379-.8234011-1.5326472-1.4327194-.3587021-.6093182-.5543581-1.2845061-.5543581-2.0420376,0-.7410575.1793532-1.4162454.5380553-2.0255636.3587021-.6093095.8478444-1.0704232,1.4674227-1.4162454.6195827-.3458309,1.2880739-.5105094,2.0380881-.5105094,1.3859041,0,2.3967945.4940442,3.03268,1.482115v-1.7291371c0-.7410575-.2445734-1.3339018-.7500186-1.7620763-.5217437-.4281658-1.1739364-.6422574-1.9728679-.6422574-.7174085,0-1.3206839.1646872-1.7935191.5105094-.4891424.3458397-.7337113.7904707-.7500186,1.3174453h-1.5000328c0-.6093182.1956561-1.1527581.5543625-1.630337.3750049-.4940354.8641473-.8727968,1.4674227-1.1362929.6195783-.2799525,1.2880739-.4117006,2.0217852-.4117006.7989315,0,1.5163356.148222,2.1685284.4446485.6358855.2964177,1.1413307.7245923,1.5000372,1.2680321.3750049.5434398.5543581,1.1527581.5543581,1.8608851v4.3804842c0,.7575315-.1793532,1.4327194-.5380597,2.0420376-.3586977.6093182-.8641517,1.0868797-1.5163356,1.4327194-.6521927.3458222-1.3859041.5105006-2.2174413.5105006-.8315416,0-1.5652529-.1646785-2.2174413-.5105006h0Z"/>
    <path class="st1" d="M131.2912885,6.8426503c.5217437.3293569.9130646.7904707,1.1902436,1.3833149.2771791.576379.4076194,1.2515669.4076194,1.9926332v7.9046368h-1.5163444v-7.7399671c0-.8398663-.163046-1.4985802-.5217524-1.94322-.3423992-.461105-.8641517-.6751879-1.5489413-.6751879-.6685,0-1.1902524.2140829-1.5652573.6587139-.3587064.4611138-.5380597,1.0868972-.5380597,1.9102983v4.7098411h-1.5163356v-4.7098411c0-.8234011-.163046-1.4491846-.5217524-1.9102983-.3423992-.444631-.8478444-.6587139-1.5326429-.6587139s-1.2065509.2140829-1.5815558.6751879c-.3587064.4446398-.5543581,1.1033536-.5543581,1.959694v7.7234931h-1.5000372v-7.9046368c0-.7410663.1304403-1.4162542.4239266-1.9926332.2771791-.5928442.6847984-1.053958,1.2065421-1.3833149.5380597-.3293569,1.1576379-.4940442,1.8587436-.4940442.6847984,0,1.2880695.1646872,1.8261291.5105094.5380509.3293657.9130646.8234011,1.1250235,1.4821238.2608718-.6587227.6358855-1.1692321,1.1576379-1.498589.5217437-.3293569,1.1413307-.4940442,1.8587348-.4940442.7011057,0,1.3206839.1646872,1.8424364.4940442h0Z"/>
    <path class="st1" d="M135.448992,17.2504296c-.7337201-.7081183-1.0924178-1.6467935-1.0924178-2.86543h1.4674227c0,.8069359.2282661,1.4162454.7011057,1.8444199.4565323.4281658,1.0761106.6422487,1.8750421.6422487.8315372,0,1.5000284-.2305481,1.9728679-.6916619.4728395-.4610962.7174041-1.1198189.7174041-1.9761592v-2.8160255c-.3097848.4940442-.7174041.8563316-1.2065421,1.1198276-.5054452.2634785-1.0761106.3952266-1.7283033.3952266-.7174041,0-1.3695969-.1646785-1.9402622-.4775702-.5869726-.3128917-1.0435049-.7575227-1.3695969-1.3503757s-.489138-1.2680321-.489138-2.0420376v-2.519599h1.4674227v2.3219813c0,.8234011.2445734,1.4821326.7174041,1.976168.4565323.4775702,1.0924178.7245923,1.8750421.7245923.8152387,0,1.4674315-.2470221,1.9402622-.7410663.4891468-.4775614.7337113-1.2021537.7337113-2.1408377v-2.1408377h1.4674315l.0162985,7.7234931c0,.8398663-.1793444,1.5479934-.5217437,2.1573029-.3587064.6093182-.8478532,1.070432-1.4674315,1.3997889-.6358767.3293569-1.3532896.4940354-2.1848268.4940354-1.2228581,0-2.2174413-.3458309-2.9511526-1.037484h0Z"/>
    <path class="st1" d="M146.0959733,17.7938782c-.6685-.3293569-1.1739452-.7904707-1.5163444-1.3833149-.3587064-.5928442-.5380509-1.2845061-.5380509-2.0585028v-.5434486h1.4674227v.4940442c0,.7904707.2608718,1.4162542.7826243,1.8773504.5054452.4611138,1.2228581.6916619,2.1196154.6916619s1.597863-.1811525,2.1033082-.5599138c.5054452-.3952266.766317-.905736.766317-1.5644586,0-.6257835-.2119589-1.1033536-.6358767-1.4162454-.4402338-.3293657-1.0108992-.477579-1.7446105-.477579h-1.0434961v-1.3833062h1.1413307c.6684912,0,1.1902436-.131748,1.5652485-.4117006.3587064-.2799613.5543581-.7081271.5543581-1.3009801,0-.5928442-.2608718-1.0704144-.766317-1.4491846-.4891468-.3622874-1.1576379-.5434398-1.9565694-.5434398-.8152387,0-1.4837299.2140829-2.0054824.6422487-.5217437.4281658-.7826243,1.0045536-.7826243,1.7291459v.3622961h-1.4837299v-.3952353c0-.7245923.1793532-1.366841.5543581-1.94322.3587064-.5599138.8641517-1.0045536,1.5163444-1.3339105.652184-.3128917,1.3858953-.477579,2.2174413-.477579.7989315,0,1.5326429.148222,2.1848356.4446485.6358767.2964177,1.1413219.7081183,1.5163356,1.2350929.3587064.5105094.5380509,1.0868884.5380509,1.6962067s-.163046,1.1198276-.489138,1.5479934c-.326092.4117006-.7826243.7081271-1.3859041.8727968.6358855.131748,1.1250323.4281746,1.5000372.8892795.3587064.4610962.5380597,1.0539492.5380597,1.7785415,0,.6587227-.1793532,1.2680321-.5380597,1.7950155-.3750049.5269746-.8967573.9386752-1.5652485,1.2350929-.6685.2964265-1.434817.4446398-2.2989687.4446398-.8967573,0-1.6630832-.1646785-2.3152671-.4940354h0Z"/>
    <path class="st1" d="M156.3190281,17.744465c-.6521927-.3622874-1.1413307-.8727968-1.5000372-1.5479846-.3586977-.6916531-.5380509-1.4821238-.5380509-2.4043337v-.7739879h1.4837299v.6422487c0,1.037484.2445646,1.8279459.7500186,2.3878598.5054452.5599138,1.1902436.8234011,2.0380881.8234011.8641517,0,1.5489501-.2470221,2.0543953-.7410575.5054452-.4940442.7500186-1.185706.7500186-2.074968,0-.5105094-.0815274-.9880884-.2445734-1.3833149-.163046-.4117006-.3587064-.7739967-.6032798-1.0704232-.2282661-.3128917-.5543581-.6587139-.9619775-1.0704144-.3913121-.4117006-.7010969-.7575315-.9456703-1.053958-.2282661-.2964177-.4239266-.6422574-.5869726-1.037484s-.2282661-.8563403-.2282661-1.3668497v-.559905h1.4837299v.444631c0,.3952353.0652202.7410575.2119589,1.053958.1304403.3128917.3097935.5928442.505454.8398663.1956517.2305569.4728307.5269746.8315372.8728055.4402251.444631.8152387.8398663,1.0761106,1.1856973.2771791.3622961.5217524.7904619.7174041,1.3174365.1956605.5105094.2934863,1.1198276.2934863,1.8114807,0,.8398751-.1956517,1.5809326-.5706654,2.2231813-.3586977.6422487-.8804501,1.1362929-1.5326429,1.498589-.652184.3458309-1.4022025.5269746-2.250047.5269746s-1.5815558-.1811437-2.2337485-.5434486h0Z"/>
    <path class="st1" d="M175.6727285,10.8608471c.5054452.3293569.9130646.7904619,1.1902436,1.366841.2608806.592853.4076194,1.2515669.4076194,1.9926244v3.9029227h-1.5326429v-3.7547007c0-.8234011-.1793532-1.4656586-.5217524-1.9102983-.3587064-.4610962-.8641517-.6916443-1.5489501-.6916443-.6684912,0-1.1739364.2305481-1.5489413.6751791-.3587064.4446398-.5543669,1.0868972-.5543669,1.8938243v2.3549206h-1.5000284v-2.3713945c0-.8069271-.1793532-1.4491846-.5217524-1.8773504-.3587064-.444631-.8641517-.6751791-1.5326429-.6751791-.6847984,0-1.2228581.2305481-1.5815645.6916443-.3750049.4446398-.5543581,1.1033624-.5543581,1.9432288v3.7217703h-1.5163356v-5.664999c0-2.0255548.5543581-3.5406178,1.6793816-4.5286974,1.108725-1.0045448,2.5761477-1.498589,4.4185841-1.498589h3.5544237v1.4162542h-3.4402906c-1.434817,0-2.5761477.2964265-3.4076849.92221-.831546.6093095-1.3043855,1.5809238-1.4185186,2.8983692.2445734-.4117006.5706654-.7410663.9782847-.9716232.4239266-.2140829.8804589-.3293569,1.3695969-.3293569.6195783,0,1.1739452.1646872,1.6630832.4940442.489138.3458222.8478444.8398663,1.0598033,1.4985802.2608806-.6751791.6521927-1.1692233,1.1739452-1.4985802.5054452-.3293569,1.1250235-.4940442,1.8261291-.4940442.7174041,0,1.3369824.1646872,1.8587348.4940442h0Z"/>
    <path class="st1" d="M180.7271894,17.760939c-.6358855-.3458309-1.1250235-.8234011-1.4674227-1.4491846-.3587064-.6093095-.5380509-1.3174365-.5380509-2.1243724v-.8069359h1.4837212v.7740055c0,.8234011.2445734,1.482115.7337201,1.9761592.5054452.4940354,1.1576292.7410575,1.9728679.7410575.8641517,0,1.5163356-.2470221,2.0054824-.7739967.489138-.5105094.7174041-1.2515669.7174041-2.2231813v-3.0465824c0-1.037484-.2445734-1.7950155-.7500186-2.3055249-.489138-.5105006-1.1576292-.7575227-2.0054824-.7575227-.7826243,0-1.4022025.2140829-1.8750421.6751879-.4728307.4446398-.7174041,1.0704232-.7174041,1.8444112v.4611138h-1.4674227v-.477579c0-.7739879.163046-1.4656498.5217524-2.0585028.3423992-.5928442.8315372-1.037484,1.4511155-1.366841s1.3043767-.4940442,2.087001-.4940442c.831546,0,1.5652573.1646872,2.2011428.5105094.6358855.3293657,1.1250235.8234011,1.5000284,1.4821238.3587064.6587227.5380597,1.4327194.5380597,2.3549206v3.1947957c0,.8892795-.1793532,1.6632675-.5217524,2.3219901-.3587064.6587227-.8478444,1.1692321-1.4837299,1.5315194-.6358855.3623049-1.3695969.5434486-2.201134.5434486-.8152387,0-1.5489501-.1811437-2.1848356-.5269746h0Z"/>
  </g>
  <g>
    <path class="st0" d="M117.9214195,40.9314183H44.1588693c-1.760909,0-3.195726-1.4656498-3.195726-3.2441913v-8.6292378c0-1.7785415,1.434817-3.2277261,3.195726-3.2277261h73.7625502c1.760909,0,3.195726,1.4491846,3.195726,3.2277261v8.6292378c0,1.7785415-1.434817,3.2441913-3.195726,3.2441913h0Z"/>
    <path class="st0" d="M117.9214195,40.9314183H44.1588693c-1.760909,0-3.195726-1.4656498-3.195726-3.2441913v-8.6292378c0-1.7785415,1.434817-3.2277261,3.195726-3.2277261h73.7625502c1.760909,0,3.195726,1.4491846,3.195726,3.2277261v8.6292378c0,1.7785415-1.434817,3.2441913-3.195726,3.2441913h0Z"/>
    <path d="M48.7568,37.2919916c-.4728351-.2305481-.8478444-.5599138-1.1087206-.9716144-.2608762-.4281658-.3913121-.905736-.3913121-1.4656498v-.4117006h1.0598033v.3622961c0,.5599138.1956605,1.0045536.5543625,1.3339105.3750093.3458309.8804545.5105094,1.51634.5105094.6521884,0,1.1576336-.1482133,1.5163356-.4117006.3750093-.2799613.5543625-.6422574.5543625-1.0868884,0-.4446398-.163046-.7739967-.4728351-1.0045536-.3097935-.2470133-.7337157-.3622961-1.2554638-.3622961h-.7174085v-.9880796h.9782803c.8967617,0,1.353294-.2634873,1.353294-.8069271,0-.2634873-.0978302-.4775702-.2934863-.6257835-.1793488-.131748-.4728351-.2799613-.8478444-.4117006-.5054452-.1811525-.9130646-.3952353-1.2065509-.6422574-.3097891-.2470133-.4565323-.6093095-.4565323-1.1033536h1.0598077c.0163072.1811525.0978302.3293569.2119633.4446398.1304359.1317393.2771791.2305481.4402251.2964177.1630504.0658784.4076194.1646872.7174085.2799613.4565323.1646785.8152343.3787614,1.0924178.6257835.2771791.2470221.407615.6093182.407615,1.0704232,0,.3622961-.1141331.6587139-.3587021.8892708-.2282661.2305481-.5706654.3952266-1.0108904.4940354.4728351.0988088.8315372.2964265,1.0924134.6257835.2608762.3293657.3913121.7575315.3913121,1.2680409,0,.461105-.1304359.8728055-.407615,1.2351017-.2608762.3787614-.6358855.6751879-1.1250279.8892708-.4891424.2305481-1.0271976.3293569-1.6467759.3293569s-1.1739408-.1152741-1.6467759-.3622961h0Z"/>
    <path d="M48.7568,37.2919916c-.4728351-.2305481-.8478444-.5599138-1.1087206-.9716144-.2608762-.4281658-.3913121-.905736-.3913121-1.4656498v-.4117006h1.0598033v.3622961c0,.5599138.1956605,1.0045536.5543625,1.3339105.3750093.3458309.8804545.5105094,1.51634.5105094.6521884,0,1.1576336-.1482133,1.5163356-.4117006.3750093-.2799613.5543625-.6422574.5543625-1.0868884,0-.4446398-.163046-.7739967-.4728351-1.0045536-.3097935-.2470133-.7337157-.3622961-1.2554638-.3622961h-.7174085v-.9880796h.9782803c.8967617,0,1.353294-.2634873,1.353294-.8069271,0-.2634873-.0978302-.4775702-.2934863-.6257835-.1793488-.131748-.4728351-.2799613-.8478444-.4117006-.5054452-.1811525-.9130646-.3952353-1.2065509-.6422574-.3097891-.2470133-.4565323-.6093095-.4565323-1.1033536h1.0598077c.0163072.1811525.0978302.3293569.2119633.4446398.1304359.1317393.2771791.2305481.4402251.2964177.1630504.0658784.4076194.1646872.7174085.2799613.4565323.1646785.8152343.3787614,1.0924178.6257835.2771791.2470221.407615.6093182.407615,1.0704232,0,.3622961-.1141331.6587139-.3587021.8892708-.2282661.2305481-.5706654.3952266-1.0108904.4940354.4728351.0988088.8315372.2964265,1.0924134.6257835.2608762.3293657.3913121.7575315.3913121,1.2680409,0,.461105-.1304359.8728055-.407615,1.2351017-.2608762.3787614-.6358855.6751879-1.1250279.8892708-.4891424.2305481-1.0271976.3293569-1.6467759.3293569s-1.1739408-.1152741-1.6467759-.3622961h0Z"/>
    <path d="M63.2679985,29.4532245c.3587064.2305481.6521884.5599138.8478444.9880796.1956605.4117006.2934863.8892708.2934863,1.4162454v5.6814643h-1.0761106v-5.5497162c0-.6093182-.1304403-1.0704232-.3913121-1.3997802-.2445734-.3293657-.6195827-.4940442-1.1087206-.4940442-.4891424,0-.8478488.1646785-1.1087206.4940442-.2771835.3128917-.4076194.7739967-.4076194,1.3503757v3.3924046h-1.0761106v-3.3924046c0-.576379-.1304403-1.037484-.3750093-1.3503757-.2445734-.3293657-.6032754-.4940442-1.0924178-.4940442-.5054452,0-.8804545.1646785-1.1413307.4940442-.2608762.3293569-.3913121.7904619-.3913121,1.3997802v5.5497162h-1.0924178v-5.6814643c0-.5269746.1141331-1.0045448.3097935-1.4162454.2119589-.4281658.489138-.7575315.8804545-.9880796.3750049-.2470221.8152343-.3622961,1.3206796-.3622961.4891424,0,.9293718.1152741,1.3043767.3622961.3913165.2470221.6684956.5928442.8152387,1.0704144.1793488-.4775702.4565323-.8398663.8315416-1.0704144.3750049-.2470221.8152343-.3622961,1.3206796-.3622961.5217524,0,.9619775.1152741,1.3369868.3622961h0Z"/>
    <path d="M63.2679985,29.4532245c.3587064.2305481.6521884.5599138.8478444.9880796.1956605.4117006.2934863.8892708.2934863,1.4162454v5.6814643h-1.0761106v-5.5497162c0-.6093182-.1304403-1.0704232-.3913121-1.3997802-.2445734-.3293657-.6195827-.4940442-1.1087206-.4940442-.4891424,0-.8478488.1646785-1.1087206.4940442-.2771835.3128917-.4076194.7739967-.4076194,1.3503757v3.3924046h-1.0761106v-3.3924046c0-.576379-.1304403-1.037484-.3750093-1.3503757-.2445734-.3293657-.6032754-.4940442-1.0924178-.4940442-.5054452,0-.8804545.1646785-1.1413307.4940442-.2608762.3293569-.3913121.7904619-.3913121,1.3997802v5.5497162h-1.0924178v-5.6814643c0-.5269746.1141331-1.0045448.3097935-1.4162454.2119589-.4281658.489138-.7575315.8804545-.9880796.3750049-.2470221.8152343-.3622961,1.3206796-.3622961.4891424,0,.9293718.1152741,1.3043767.3622961.3913165.2470221.6684956.5928442.8152387,1.0704144.1793488-.4775702.4565323-.8398663.8315416-1.0704144.3750049-.2470221.8152343-.3622961,1.3206796-.3622961.5217524,0,.9619775.1152741,1.3369868.3622961h0Z"/>
    <path d="M73.9965029,33.4220081c.2934863-.3458222.4565323-.8069271.4565323-1.4162454s-.163046-1.0704232-.4728351-1.4162454c-.2934863-.3458309-.7174085-.5105094-1.2717666-.5105094-.5217524,0-.9293718.1646785-1.2391609.5105094-.2934863.3458222-.4565323.8069271-.4565323,1.4162454,0,.592853.163046,1.0704232.4565323,1.3997802.3097891.3458309.7174085.5105094,1.2391609.5105094.5543581,0,.9782803-.1646785,1.2880695-.4940442h0ZM68.4692025,37.0614435c-.7337113-.3128917-1.3043767-.7904707-1.7446018-1.4327194-.4239222-.6422487-.6358855-1.4162454-.6358855-2.3549206v-1.4162542c0-.5434398.0978302-1.037484.2934863-1.4491846s.4891424-.7410575.8478444-.9716056c.3587021-.2305569.7826287-.3458309,1.2554638-.3458309.4402251,0,.8478444.1317393,1.2228537.3622961.3913121.2470221.6521884.6093182.8152343,1.0704144.1956561-.4775702.4891424-.8233923.8804545-1.0704144.4076194-.2470221.8804545-.3622961,1.434817-.3622961.5217524,0,.9782847.1317393,1.3858997.3622961.4239222.2470221.7337157.5928442.9619819,1.037484.2119589.444631.326092.9386752.326092,1.5150542,0,.592853-.1141331,1.1033536-.3423992,1.5315282-.2282661.444631-.5543581.7739967-.9782847,1.02101-.4239222.2305569-.9130602.3458309-1.4674227.3458309s-1.0435005-.1152741-1.4674227-.3458309c-.4076194-.2305481-.7337157-.559905-.9619819-1.0045448-.2282661-.4281658-.3423992-.92221-.3423992-1.4821238v-.2634873c0-.5434398-.1141331-.9551404-.3587021-1.2515669-.2608762-.3128917-.5869682-.461105-.9945876-.461105-.4728351,0-.8315416.1646785-1.0761106.4940442-.2608762.3128917-.3750093.7904619-.3750093,1.3997802v1.1033536c0,1.1198276.326092,1.959694,1.0108904,2.5525382.6847984.592853,1.597863.8892795,2.7718038.8892795h2.8533268v1.0045448h-2.951157c-.8641473,0-1.6467759-.1646785-2.3641844-.4775702h0Z"/>
    <path d="M73.9965029,33.4220081c.2934863-.3458222.4565323-.8069271.4565323-1.4162454s-.163046-1.0704232-.4728351-1.4162454c-.2934863-.3458309-.7174085-.5105094-1.2717666-.5105094-.5217524,0-.9293718.1646785-1.2391609.5105094-.2934863.3458222-.4565323.8069271-.4565323,1.4162454,0,.592853.163046,1.0704232.4565323,1.3997802.3097891.3458309.7174085.5105094,1.2391609.5105094.5543581,0,.9782803-.1646785,1.2880695-.4940442h0ZM68.4692025,37.0614435c-.7337113-.3128917-1.3043767-.7904707-1.7446018-1.4327194-.4239222-.6422487-.6358855-1.4162454-.6358855-2.3549206v-1.4162542c0-.5434398.0978302-1.037484.2934863-1.4491846s.4891424-.7410575.8478444-.9716056c.3587021-.2305569.7826287-.3458309,1.2554638-.3458309.4402251,0,.8478444.1317393,1.2228537.3622961.3913121.2470221.6521884.6093182.8152343,1.0704144.1956561-.4775702.4891424-.8233923.8804545-1.0704144.4076194-.2470221.8804545-.3622961,1.434817-.3622961.5217524,0,.9782847.1317393,1.3858997.3622961.4239222.2470221.7337157.5928442.9619819,1.037484.2119589.444631.326092.9386752.326092,1.5150542,0,.592853-.1141331,1.1033536-.3423992,1.5315282-.2282661.444631-.5543581.7739967-.9782847,1.02101-.4239222.2305569-.9130602.3458309-1.4674227.3458309s-1.0435005-.1152741-1.4674227-.3458309c-.4076194-.2305481-.7337157-.559905-.9619819-1.0045448-.2282661-.4281658-.3423992-.92221-.3423992-1.4821238v-.2634873c0-.5434398-.1141331-.9551404-.3587021-1.2515669-.2608762-.3128917-.5869682-.461105-.9945876-.461105-.4728351,0-.8315416.1646785-1.0761106.4940442-.2608762.3128917-.3750093.7904619-.3750093,1.3997802v1.1033536c0,1.1198276.326092,1.959694,1.0108904,2.5525382.6847984.592853,1.597863.8892795,2.7718038.8892795h2.8533268v1.0045448h-2.951157c-.8641473,0-1.6467759-.1646785-2.3641844-.4775702h0Z"/>
    <path d="M77.7139813,37.2919916c-.4891424-.2305481-.8478444-.5599138-1.1087206-.9880796s-.3913165-.9386752-.3913165-1.498589v-.3622961h1.0924178v.3293657c0,.5928442.1793532,1.037484.5543625,1.366841.3587021.3458309.8641473.5105094,1.5163356.5105094.6684956,0,1.1739408-.1482133,1.51634-.461105.3587064-.2964265.5380597-.7410575.5380597-1.3174453,0-.5434398-.1793532-.9551404-.5217568-1.2350929-.326092-.2799613-.7989271-.4117006-1.4022025-.4117006h-.6847984v-.9880796h.8152343c.5217524,0,.9130646-.1152828,1.1739408-.3622961.2771791-.2305569.4076194-.6257922.4076194-1.1527668v-1.5150542h1.0761062v1.5809326c0,1.02101-.489138,1.6632675-1.4348126,1.9267548.5054496.0988088.913069.3458222,1.2228537.7245923.3097935.3952266.4565323.8892708.4565323,1.498589,0,.5434398-.1304403,1.02101-.3913121,1.4327106s-.6358855.7245923-1.1087206.9551492c-.4728395.2140829-1.0271976.3293569-1.6630832.3293569-.6358811,0-1.1902436-.1152741-1.6630788-.3622961h0Z"/>
    <path d="M77.7139813,37.2919916c-.4891424-.2305481-.8478444-.5599138-1.1087206-.9880796s-.3913165-.9386752-.3913165-1.498589v-.3622961h1.0924178v.3293657c0,.5928442.1793532,1.037484.5543625,1.366841.3587021.3458309.8641473.5105094,1.5163356.5105094.6684956,0,1.1739408-.1482133,1.51634-.461105.3587064-.2964265.5380597-.7410575.5380597-1.3174453,0-.5434398-.1793532-.9551404-.5217568-1.2350929-.326092-.2799613-.7989271-.4117006-1.4022025-.4117006h-.6847984v-.9880796h.8152343c.5217524,0,.9130646-.1152828,1.1739408-.3622961.2771791-.2305569.4076194-.6257922.4076194-1.1527668v-1.5150542h1.0761062v1.5809326c0,1.02101-.489138,1.6632675-1.4348126,1.9267548.5054496.0988088.913069.3458222,1.2228537.7245923.3097935.3952266.4565323.8892708.4565323,1.498589,0,.5434398-.1304403,1.02101-.3913121,1.4327106s-.6358855.7245923-1.1087206.9551492c-.4728395.2140829-1.0271976.3293569-1.6630832.3293569-.6358811,0-1.1902436-.1152741-1.6630788-.3622961h0Z"/>
    <path d="M85.2793698,37.2755264c-.4565323-.2634873-.8152387-.6422574-1.0761106-1.1198276-.2608806-.4940354-.3750137-1.0704144-.3750137-1.7291371v-.5599138h1.0598121v.4775702c0,.7410663.1793532,1.3174453.5380509,1.7126719.3587064.3952353.8478532.592853,1.4511242.592853.6195783,0,1.1087163-.1811525,1.4837299-.5434486.3587064-.3458222.5380509-.8563316.5380509-1.482115,0-.3787701-.0652114-.7081271-.1793444-1.0045536-.1141331-.2964177-.2608806-.5434398-.4239266-.7575227-.1793532-.2305569-.4076194-.477579-.7011057-.7739967-.2771791-.2964265-.5054452-.5434486-.6684912-.7575315s-.3097848-.461105-.4239178-.7410575c-.1141331-.2799613-.1793532-.6093182-.1793532-.9716144v-.4117006h1.0761106v.3293569c0,.2799613.0489129.5269834.1467388.7575315.0978258.2140829.2282661.4117006.3750137.5928442.1304315.1646872.3423992.3787701.5869638.6257922.3261008.3293569.5869726.6093095.782633.8563316.1956517.2470221.3586977.5599138.5054452.9386752.1304315.3622961.2119589.8069359.2119589,1.3009713,0,.6093182-.1304403,1.1362929-.4076194,1.5973978-.2608718.461105-.6358855.8234011-1.1087163,1.0704232-.4728395.2470221-1.0108992.3787614-1.6141702.3787614s-1.1413307-.1317393-1.597863-.3787614h0Z"/>
    <path d="M85.2793698,37.2755264c-.4565323-.2634873-.8152387-.6422574-1.0761106-1.1198276-.2608806-.4940354-.3750137-1.0704144-.3750137-1.7291371v-.5599138h1.0598121v.4775702c0,.7410663.1793532,1.3174453.5380509,1.7126719.3587064.3952353.8478532.592853,1.4511242.592853.6195783,0,1.1087163-.1811525,1.4837299-.5434486.3587064-.3458222.5380509-.8563316.5380509-1.482115,0-.3787701-.0652114-.7081271-.1793444-1.0045536-.1141331-.2964177-.2608806-.5434398-.4239266-.7575227-.1793532-.2305569-.4076194-.477579-.7011057-.7739967-.2771791-.2964265-.5054452-.5434486-.6684912-.7575315s-.3097848-.461105-.4239178-.7410575c-.1141331-.2799613-.1793532-.6093182-.1793532-.9716144v-.4117006h1.0761106v.3293569c0,.2799613.0489129.5269834.1467388.7575315.0978258.2140829.2282661.4117006.3750137.5928442.1304315.1646872.3423992.3787701.5869638.6257922.3261008.3293569.5869726.6093095.782633.8563316.1956517.2470221.3586977.5599138.5054452.9386752.1304315.3622961.2119589.8069359.2119589,1.3009713,0,.6093182-.1304403,1.1362929-.4076194,1.5973978-.2608718.461105-.6358855.8234011-1.1087163,1.0704232-.4728395.2470221-1.0108992.3787614-1.6141702.3787614s-1.1413307-.1317393-1.597863-.3787614h0Z"/>
    <path d="M93.1545517,37.2919916c-.4565323-.2470221-.8152387-.6093182-1.0761106-1.0868884-.2608806-.4775702-.3913209-1.037484-.3913209-1.6962067v-5.3026941h1.0924178v5.2203593c0,.7410575.163046,1.3009713.5217524,1.6632675.3587064.3787614.8478444.5599138,1.4674227.5599138s1.108725-.1646785,1.4837299-.4775702c.3587064-.3128917.5380597-.7410663.5380597-1.2845061,0-.2799613-.0489129-.5105094-.163046-.7081271-.0978346-.2140829-.2445734-.4281658-.4565323-.6751879-.1956605-.2470221-.3587064-.4775702-.4565323-.6916531-.1141331-.1976177-.163046-.461105-.163046-.7575315h1.0598033c0,.1811525.0489129.3293569.1304403.461105.0815186.131748.1956517.2964265.3586977.4940442.2608806.2964177.4565323.5928442.5869726.8727968.1467388.2799613.2119589.6422574.2119589,1.0704232,0,.5105094-.1304315.9880796-.4076194,1.3833149-.2608718.4117006-.6358767.7410575-1.1087163.9716144-.4728395.2305481-1.0108904.3458222-1.6141702.3458222-.603271,0-1.1413307-.1152741-1.6141615-.3622961h0Z"/>
    <path d="M93.1545517,37.2919916c-.4565323-.2470221-.8152387-.6093182-1.0761106-1.0868884-.2608806-.4775702-.3913209-1.037484-.3913209-1.6962067v-5.3026941h1.0924178v5.2203593c0,.7410575.163046,1.3009713.5217524,1.6632675.3587064.3787614.8478444.5599138,1.4674227.5599138s1.108725-.1646785,1.4837299-.4775702c.3587064-.3128917.5380597-.7410663.5380597-1.2845061,0-.2799613-.0489129-.5105094-.163046-.7081271-.0978346-.2140829-.2445734-.4281658-.4565323-.6751879-.1956605-.2470221-.3587064-.4775702-.4565323-.6916531-.1141331-.1976177-.163046-.461105-.163046-.7575315h1.0598033c0,.1811525.0489129.3293569.1304403.461105.0815186.131748.1956517.2964265.3586977.4940442.2608806.2964177.4565323.5928442.5869726.8727968.1467388.2799613.2119589.6422574.2119589,1.0704232,0,.5105094-.1304315.9880796-.4076194,1.3833149-.2608718.4117006-.6358767.7410575-1.1087163.9716144-.4728395.2305481-1.0108904.3458222-1.6141702.3458222-.603271,0-1.1413307-.1152741-1.6141615-.3622961h0Z"/>
    <path d="M104.7145976,36.2709728c.4402251-.2470133.7826243-.6093095,1.0434961-1.0704144.2445734-.4775702.3750137-1.0210188.3750137-1.630337,0-.8892708-.2282661-1.5973978-.6685-2.1408377-.4402251-.5434486-1.0271976-.8728055-1.760909-.9716144.0489217.461105.0652202.9551492.0652202,1.4656586v2.1902421h-1.0598033v-2.1573117c0-.5269746.0163072-1.0210188.0652202-1.482115-.7337113.0988001-1.3206839.4281658-1.760909.9551404-.4402338.5434398-.6685,1.2515669-.6685,2.1408377,0,.6093182.1304403,1.1527668.3750137,1.630337.2608718.461105.603271.8234011,1.0434961,1.0704144.4402338.2470221.9293718.3787701,1.4837299.3787701.5380597,0,1.0271976-.131748,1.4674315-.3787701h0ZM101.1927709,37.1437784c-.6195783-.3458222-1.092409-.8234011-1.4348082-1.4491846-.3423992-.6093095-.5217524-1.3339018-.5217524-2.1243724,0-.7575227.1467388-1.4327106.4565323-2.0090896.2934863-.5763878.7011057-1.053958,1.2391566-1.3997889.5217524-.3458222,1.1413307-.559905,1.8098219-.6257835l-.0162985-.444631h1.0271976l-.0326145.444631c.6847984.0658784,1.2880695.2634873,1.8261291.6257835.5217524.3458309.9456703.8234011,1.2554638,1.3997889.2934863.5928442.4402251,1.2515669.4402251,2.0090896,0,.7904707-.163046,1.515063-.5054452,2.1243724-.3587064.6257835-.8315372,1.1033624-1.4511155,1.4491846-.6032798.3458309-1.2880783.5105094-2.0380968.5105094-.766317,0-1.4511155-.1646785-2.0543953-.5105094h0Z"/>
    <path d="M104.7145976,36.2709728c.4402251-.2470133.7826243-.6093095,1.0434961-1.0704144.2445734-.4775702.3750137-1.0210188.3750137-1.630337,0-.8892708-.2282661-1.5973978-.6685-2.1408377-.4402251-.5434486-1.0271976-.8728055-1.760909-.9716144.0489217.461105.0652202.9551492.0652202,1.4656586v2.1902421h-1.0598033v-2.1573117c0-.5269746.0163072-1.0210188.0652202-1.482115-.7337113.0988001-1.3206839.4281658-1.760909.9551404-.4402338.5434398-.6685,1.2515669-.6685,2.1408377,0,.6093182.1304403,1.1527668.3750137,1.630337.2608718.461105.603271.8234011,1.0434961,1.0704144.4402338.2470221.9293718.3787701,1.4837299.3787701.5380597,0,1.0271976-.131748,1.4674315-.3787701h0ZM101.1927709,37.1437784c-.6195783-.3458222-1.092409-.8234011-1.4348082-1.4491846-.3423992-.6093095-.5217524-1.3339018-.5217524-2.1243724,0-.7575227.1467388-1.4327106.4565323-2.0090896.2934863-.5763878.7011057-1.053958,1.2391566-1.3997889.5217524-.3458222,1.1413307-.559905,1.8098219-.6257835l-.0162985-.444631h1.0271976l-.0326145.444631c.6847984.0658784,1.2880695.2634873,1.8261291.6257835.5217524.3458309.9456703.8234011,1.2554638,1.3997889.2934863.5928442.4402251,1.2515669.4402251,2.0090896,0,.7904707-.163046,1.515063-.5054452,2.1243724-.3587064.6257835-.8315372,1.1033624-1.4511155,1.4491846-.6032798.3458309-1.2880783.5105094-2.0380968.5105094-.766317,0-1.4511155-.1646785-2.0543953-.5105094h0Z"/>
    <path d="M108.921214,32.2363196c0-.6422574.1304315-1.2021713.3750049-1.6797415.2445734-.461105.6032798-.8234011,1.0435049-1.0868884.4402251-.2470221.9456703-.3787614,1.5163356-.3787614s1.0761106.1317393,1.5326429.3787614c.4402338.2634873.7989315.6257835,1.0435049,1.0868884.2608718.4775702.3913121,1.037484.3913121,1.6797415v5.3026941h-1.0598033v-5.2368245c0-.7245923-.1793532-1.2680409-.5217524-1.6468023-.3423992-.3622961-.7989315-.5599138-1.3859041-.5599138-.5543581,0-1.0108904.1976177-1.3532896.576379-.3587064.3787701-.5217524.92221-.5217524,1.630337v5.2368245h-1.0598033v-5.3026941Z"/>
    <path d="M108.921214,32.2363196c0-.6422574.1304315-1.2021713.3750049-1.6797415.2445734-.461105.6032798-.8234011,1.0435049-1.0868884.4402251-.2470221.9456703-.3787614,1.5163356-.3787614s1.0761106.1317393,1.5326429.3787614c.4402338.2634873.7989315.6257835,1.0435049,1.0868884.2608718.4775702.3913121,1.037484.3913121,1.6797415v5.3026941h-1.0598033v-5.2368245c0-.7245923-.1793532-1.2680409-.5217524-1.6468023-.3423992-.3622961-.7989315-.5599138-1.3859041-.5599138-.5543581,0-1.0108904.1976177-1.3532896.576379-.3587064.3787701-.5217524.92221-.5217524,1.630337v5.2368245h-1.0598033v-5.3026941Z"/>
  </g>
</svg>